M48
; DRILL file {KiCad 7.0.11-rc3} date Sun Mar 23 22:54:05 2025
; FORMAT={-:-/ absolute / inch / decimal}
; #@! TF.CreationDate,2025-03-23T22:54:05+01:00
; #@! TF.GenerationSoftware,Kicad,Pcbnew,7.0.11-rc3
; #@! TF.FileFunction,Plated,1,2,PTH
FMAT,2
INCH
; #@! TA.AperFunction,Plated,PTH,ViaDrill
T1C0.0157
; #@! TA.AperFunction,Plated,PTH,ComponentDrill
T2C0.0276
; #@! TA.AperFunction,Plated,PTH,ComponentDrill
T3C0.0295
; #@! TA.AperFunction,Plated,PTH,ComponentDrill
T4C0.0315
; #@! TA.AperFunction,Plated,PTH,ComponentDrill
T5C0.0354
; #@! TA.AperFunction,Plated,PTH,ComponentDrill
T6C0.0394
; #@! TA.AperFunction,Plated,PTH,ComponentDrill
T7C0.0433
; #@! TA.AperFunction,Plated,PTH,ComponentDrill
T8C0.0512
; #@! TA.AperFunction,Plated,PTH,ComponentDrill
T9C0.1181
; #@! TA.AperFunction,Plated,PTH,ComponentDrill
T10C0.1260
%
G90
G05
T1
X4.9497Y-3.362
X4.9639Y-2.8602
X5.2355Y-4.3244
X5.5049Y-3.9527
X5.5452Y-2.5184
X5.765Y-4.09
X5.8542Y-4.6986
X5.8802Y-2.28
X6.1254Y-3.9235
X6.2441Y-3.8934
X6.4377Y-4.2744
X6.4455Y-3.2244
X6.4664Y-4.3596
X6.8161Y-3.7515
X6.9108Y-3.77
X7.0055Y-3.5195
X7.6221Y-4.2424
T2
X6.09Y-2.58
X6.16Y-2.075
X6.2Y-2.725
T3
X4.8269Y-3.617
X4.8269Y-3.667
X4.8269Y-3.717
T4
X5.116Y-2.932
X5.116Y-3.232
X5.28Y-2.335
X5.341Y-3.122
X5.341Y-3.422
X5.3784Y-2.335
X5.5269Y-3.082
X5.5269Y-3.182
X5.5269Y-3.282
X5.6216Y-2.7
X5.6892Y-3.825
X5.72Y-2.7
X5.945Y-4.8558
X5.9892Y-3.825
X6.045Y-4.8558
X6.145Y-4.8558
X6.28Y-3.495
X6.28Y-3.595
X6.28Y-3.695
X6.2942Y-4.02
X6.2942Y-4.12
X6.2942Y-4.22
X7.45Y-3.62
X7.45Y-3.92
T5
X4.806Y-3.102
X4.806Y-3.202
X5.1321Y-3.877
X5.2321Y-3.877
X5.5821Y-4.412
X5.6821Y-4.412
X5.7898Y-2.47
X5.8802Y-2.08
X5.8898Y-2.47
X5.9321Y-4.587
X5.9802Y-2.08
X6.0321Y-4.587
T6
X5.58Y-4.7352
X5.58Y-4.8352
X5.585Y-3.415
X5.685Y-3.415
X5.785Y-3.415
X5.785Y-4.7302
X5.785Y-4.8302
X5.94Y-2.725
X6.04Y-2.725
X6.4069Y-2.257
X6.4069Y-2.357
X6.4069Y-2.457
X6.4069Y-2.557
X6.4069Y-2.657
X6.4069Y-2.757
X6.4069Y-2.857
X6.4069Y-2.957
X6.4069Y-3.057
X6.4069Y-3.157
X6.595Y-3.465
X6.6598Y-4.2
X6.6783Y-4.6332
X6.695Y-3.465
X6.7328Y-4.745
X6.7598Y-4.2
X6.7874Y-4.6332
X6.795Y-3.465
X6.8419Y-4.745
X6.8964Y-4.6332
X6.9509Y-4.745
X7.0055Y-4.6332
X7.06Y-4.745
X7.1145Y-4.6332
X7.4069Y-2.257
X7.4069Y-2.357
X7.4069Y-2.457
X7.4069Y-2.557
X7.4069Y-2.657
X7.4069Y-2.757
X7.4069Y-2.857
X7.4069Y-2.957
X7.4069Y-3.057
X7.4069Y-3.157
X7.57Y-2.24
X7.57Y-2.34
X7.57Y-2.44
X7.57Y-2.54
X7.57Y-2.64
X7.57Y-2.74
X7.57Y-2.84
X7.57Y-2.94
X7.57Y-3.04
X7.57Y-3.14
X7.57Y-3.24
X7.57Y-3.34
X7.57Y-3.44
T7
X5.175Y-2.0678
X5.275Y-2.0678
X5.375Y-2.0678
T8
X5.0913Y-2.4666
X5.0913Y-2.6634
T9
X4.845Y-2.08
X4.855Y-4.95
X7.71Y-4.94
X7.72Y-2.07
T10
X6.4043Y-4.645
X7.3885Y-4.645
M30
